<svg xmlns="http://www.w3.org/2000/svg" xmlns:xlink="http://www.w3.org/1999/xlink" width="50" zoomAndPan="magnify" viewBox="0 0 37.5 37.499999" height="50" preserveAspectRatio="xMidYMid meet" version="1.0"><defs><clipPath id="a3b44e7bfc"><path d="M 34.546875 8.546875 L 37.007812 8.546875 L 37.007812 20.105469 L 34.546875 20.105469 Z M 34.546875 8.546875 " clip-rule="nonzero"/></clipPath><clipPath id="efd7989b81"><path d="M 14 31 L 24 31 L 24 34.382812 L 14 34.382812 Z M 14 31 " clip-rule="nonzero"/></clipPath><clipPath id="4c789b092c"><path d="M 23 2.882812 L 32 2.882812 L 32 6 L 23 6 Z M 23 2.882812 " clip-rule="nonzero"/></clipPath><clipPath id="e9e94cf91a"><path d="M 5 2.882812 L 15 2.882812 L 15 6 L 5 6 Z M 5 2.882812 " clip-rule="nonzero"/></clipPath></defs><path fill="#ffffff" d="M 5.769531 11.472656 L 8.652344 11.472656 L 8.652344 8.609375 L 11.539062 8.609375 L 11.539062 11.472656 L 8.652344 11.472656 L 8.652344 14.335938 L 5.769531 14.335938 Z M 8.652344 20.0625 L 8.652344 22.929688 L 11.539062 22.929688 L 11.539062 25.792969 L 14.421875 25.792969 L 14.421875 28.65625 L 23.078125 28.65625 L 23.078125 25.792969 L 25.960938 25.792969 L 25.960938 22.929688 L 28.847656 22.929688 L 28.847656 20.0625 L 31.730469 20.0625 L 31.730469 8.609375 L 28.847656 8.609375 L 28.847656 5.746094 L 23.078125 5.746094 L 23.078125 8.609375 L 20.191406 8.609375 L 20.191406 11.472656 L 17.308594 11.472656 L 17.308594 8.609375 L 14.421875 8.609375 L 14.421875 5.746094 L 5.769531 5.746094 L 5.769531 8.609375 L 2.886719 8.609375 L 2.886719 20.0625 L 8.652344 20.0625 " fill-opacity="1" fill-rule="nonzero"/><path fill="#ffffff" d="M 8.652344 11.472656 L 5.769531 11.472656 L 5.769531 14.335938 L 8.652344 14.335938 L 8.652344 11.472656 " fill-opacity="1" fill-rule="nonzero"/><path fill="#ffffff" d="M 11.539062 8.609375 L 8.652344 8.609375 L 8.652344 11.472656 L 11.539062 11.472656 L 11.539062 8.609375 " fill-opacity="1" fill-rule="nonzero"/><path fill="#040606" d="M 25.960938 28.65625 L 28.847656 28.65625 L 28.847656 25.792969 L 25.960938 25.792969 L 25.960938 28.65625 " fill-opacity="1" fill-rule="nonzero"/><path fill="#040606" d="M 28.847656 25.792969 L 31.730469 25.792969 L 31.730469 22.929688 L 28.847656 22.929688 L 28.847656 25.792969 " fill-opacity="1" fill-rule="nonzero"/><g clip-path="url(#a3b44e7bfc)"><path fill="#040606" d="M 37.5 20.0625 L 37.5 8.609375 L 34.617188 8.609375 L 34.617188 20.0625 L 37.5 20.0625 " fill-opacity="1" fill-rule="nonzero"/></g><path fill="#040606" d="M 23.078125 31.519531 L 25.960938 31.519531 L 25.960938 28.65625 L 23.078125 28.65625 L 23.078125 31.519531 " fill-opacity="1" fill-rule="nonzero"/><g clip-path="url(#efd7989b81)"><path fill="#040606" d="M 14.421875 31.519531 L 14.421875 34.382812 L 23.078125 34.382812 L 23.078125 31.519531 L 14.421875 31.519531 " fill-opacity="1" fill-rule="nonzero"/></g><path fill="#040606" d="M 8.652344 25.792969 L 8.652344 28.65625 L 11.539062 28.65625 L 11.539062 25.792969 L 8.652344 25.792969 " fill-opacity="1" fill-rule="nonzero"/><path fill="#040606" d="M 11.539062 28.65625 L 11.539062 31.519531 L 14.421875 31.519531 L 14.421875 28.65625 L 11.539062 28.65625 " fill-opacity="1" fill-rule="nonzero"/><path fill="#040606" d="M 5.769531 22.929688 L 5.769531 25.792969 L 8.652344 25.792969 L 8.652344 22.929688 L 5.769531 22.929688 " fill-opacity="1" fill-rule="nonzero"/><path fill="#040606" d="M 23.078125 5.746094 L 20.191406 5.746094 L 20.191406 8.609375 L 23.078125 8.609375 L 23.078125 5.746094 " fill-opacity="1" fill-rule="nonzero"/><g clip-path="url(#4c789b092c)"><path fill="#040606" d="M 31.730469 5.746094 L 31.730469 2.882812 L 23.078125 2.882812 L 23.078125 5.746094 L 31.730469 5.746094 " fill-opacity="1" fill-rule="nonzero"/></g><path fill="#040606" d="M 31.730469 22.929688 L 34.617188 22.929688 L 34.617188 20.0625 L 31.730469 20.0625 L 31.730469 22.929688 " fill-opacity="1" fill-rule="nonzero"/><path fill="#040606" d="M 34.617188 8.609375 L 34.617188 5.746094 L 31.730469 5.746094 L 31.730469 8.609375 L 34.617188 8.609375 " fill-opacity="1" fill-rule="nonzero"/><path fill="#040606" d="M 2.886719 20.0625 L 2.886719 22.929688 L 5.769531 22.929688 L 5.769531 20.0625 L 2.886719 20.0625 " fill-opacity="1" fill-rule="nonzero"/><path fill="#040606" d="M 5.769531 5.746094 L 2.886719 5.746094 L 2.886719 8.609375 L 5.769531 8.609375 L 5.769531 5.746094 " fill-opacity="1" fill-rule="nonzero"/><path fill="#040606" d="M 20.191406 11.472656 L 20.191406 8.609375 L 17.308594 8.609375 L 17.308594 11.472656 L 20.191406 11.472656 " fill-opacity="1" fill-rule="nonzero"/><path fill="#040606" d="M 17.308594 8.609375 L 17.308594 5.746094 L 14.421875 5.746094 L 14.421875 8.609375 L 17.308594 8.609375 " fill-opacity="1" fill-rule="nonzero"/><g clip-path="url(#e9e94cf91a)"><path fill="#040606" d="M 14.421875 2.882812 L 5.769531 2.882812 L 5.769531 5.746094 L 14.421875 5.746094 L 14.421875 2.882812 " fill-opacity="1" fill-rule="nonzero"/></g><path fill="#040606" d="M 0 8.609375 L 0 20.0625 L 2.886719 20.0625 L 2.886719 8.609375 L 0 8.609375 " fill-opacity="1" fill-rule="nonzero"/><path fill="#ffffff" d="M 11.539062 22.929688 L 8.652344 22.929688 L 8.652344 25.792969 L 11.539062 25.792969 L 11.539062 22.929688 " fill-opacity="1" fill-rule="nonzero"/><path fill="#ffffff" d="M 25.960938 22.929688 L 25.960938 25.792969 L 28.847656 25.792969 L 28.847656 22.929688 L 25.960938 22.929688 " fill-opacity="1" fill-rule="nonzero"/><path fill="#ffffff" d="M 8.652344 20.0625 L 5.769531 20.0625 L 5.769531 22.929688 L 8.652344 22.929688 L 8.652344 20.0625 " fill-opacity="1" fill-rule="nonzero"/><path fill="#ffffff" d="M 28.847656 8.609375 L 31.730469 8.609375 L 31.730469 5.746094 L 28.847656 5.746094 L 28.847656 8.609375 " fill-opacity="1" fill-rule="nonzero"/><path fill="#ffffff" d="M 23.078125 25.792969 L 23.078125 28.65625 L 25.960938 28.65625 L 25.960938 25.792969 L 23.078125 25.792969 " fill-opacity="1" fill-rule="nonzero"/><path fill="#ffffff" d="M 28.847656 20.0625 L 28.847656 22.929688 L 31.730469 22.929688 L 31.730469 20.0625 L 28.847656 20.0625 " fill-opacity="1" fill-rule="nonzero"/><path fill="#ffffff" d="M 23.078125 28.65625 L 14.421875 28.65625 L 14.421875 31.519531 L 23.078125 31.519531 L 23.078125 28.65625 " fill-opacity="1" fill-rule="nonzero"/><path fill="#ffffff" d="M 31.730469 20.0625 L 34.617188 20.0625 L 34.617188 8.609375 L 31.730469 8.609375 L 31.730469 20.0625 " fill-opacity="1" fill-rule="nonzero"/><path fill="#ffffff" d="M 14.421875 25.792969 L 11.539062 25.792969 L 11.539062 28.65625 L 14.421875 28.65625 L 14.421875 25.792969 " fill-opacity="1" fill-rule="nonzero"/></svg>