<svg xmlns="http://www.w3.org/2000/svg" xmlns:xlink="http://www.w3.org/1999/xlink" width="50" zoomAndPan="magnify" viewBox="0 0 37.5 37.499999" height="50" preserveAspectRatio="xMidYMid meet" version="1.0"><defs><clipPath id="e31f8a3bc1"><path d="M 34 14 L 37.007812 14 L 37.007812 18 L 34 18 Z M 34 14 " clip-rule="nonzero"/></clipPath><clipPath id="c81ed7fbae"><path d="M 34 11 L 37.007812 11 L 37.007812 15 L 34 15 Z M 34 11 " clip-rule="nonzero"/></clipPath><clipPath id="2b3d96c2a0"><path d="M 34 8 L 37.007812 8 L 37.007812 12 L 34 12 Z M 34 8 " clip-rule="nonzero"/></clipPath><clipPath id="1607796bea"><path d="M 25.9375 34.5625 L 28.875 34.5625 L 28.875 37.007812 L 25.9375 37.007812 Z M 25.9375 34.5625 " clip-rule="nonzero"/></clipPath><clipPath id="677817d448"><path d="M 23.0625 34.5625 L 26 34.5625 L 26 37.007812 L 23.0625 37.007812 Z M 23.0625 34.5625 " clip-rule="nonzero"/></clipPath><clipPath id="65abd0adab"><path d="M 20.1875 34.5625 L 23.125 34.5625 L 23.125 37.007812 L 20.1875 37.007812 Z M 20.1875 34.5625 " clip-rule="nonzero"/></clipPath><clipPath id="a3d1016ea1"><path d="M 17.25 34.5625 L 20.25 34.5625 L 20.25 37.007812 L 17.25 37.007812 Z M 17.25 34.5625 " clip-rule="nonzero"/></clipPath><clipPath id="fc5b268805"><path d="M 14.375 34.5625 L 17.3125 34.5625 L 17.3125 37.007812 L 14.375 37.007812 Z M 14.375 34.5625 " clip-rule="nonzero"/></clipPath><clipPath id="be2ffa3d1c"><path d="M 11.5 34.5625 L 14.4375 34.5625 L 14.4375 37.007812 L 11.5 37.007812 Z M 11.5 34.5625 " clip-rule="nonzero"/></clipPath><clipPath id="46fbcba50d"><path d="M 8.625 34.5625 L 11.5625 34.5625 L 11.5625 37.007812 L 8.625 37.007812 Z M 8.625 34.5625 " clip-rule="nonzero"/></clipPath></defs><g clip-path="url(#e31f8a3bc1)"><path fill="#8f0005" d="M 37.5 14.421875 L 37.5 17.308594 L 34.617188 17.308594 L 34.617188 14.421875 L 37.5 14.421875 " fill-opacity="1" fill-rule="nonzero"/></g><g clip-path="url(#c81ed7fbae)"><path fill="#8f0005" d="M 37.5 11.539062 L 37.5 14.421875 L 34.617188 14.421875 L 34.617188 11.539062 L 37.5 11.539062 " fill-opacity="1" fill-rule="nonzero"/></g><g clip-path="url(#2b3d96c2a0)"><path fill="#8f0005" d="M 37.5 8.652344 L 37.5 11.539062 L 34.617188 11.539062 L 34.617188 8.652344 L 37.5 8.652344 " fill-opacity="1" fill-rule="nonzero"/></g><path fill="#027346" d="M 34.617188 23.078125 L 34.617188 25.960938 L 31.730469 25.960938 L 31.730469 23.078125 L 34.617188 23.078125 " fill-opacity="1" fill-rule="nonzero"/><path fill="#8f0005" d="M 34.617188 14.421875 L 34.617188 17.308594 L 31.730469 17.308594 L 31.730469 14.421875 L 34.617188 14.421875 " fill-opacity="1" fill-rule="nonzero"/><path fill="#8f0005" d="M 34.617188 11.539062 L 34.617188 14.421875 L 31.730469 14.421875 L 31.730469 11.539062 L 34.617188 11.539062 " fill-opacity="1" fill-rule="nonzero"/><path fill="#bd090d" d="M 34.617188 8.652344 L 34.617188 11.539062 L 31.730469 11.539062 L 31.730469 8.652344 L 34.617188 8.652344 " fill-opacity="1" fill-rule="nonzero"/><path fill="#8f0005" d="M 34.617188 5.769531 L 34.617188 8.652344 L 31.730469 8.652344 L 31.730469 5.769531 L 34.617188 5.769531 " fill-opacity="1" fill-rule="nonzero"/><path fill="#027346" d="M 31.730469 28.847656 L 31.730469 31.730469 L 28.847656 31.730469 L 28.847656 28.847656 L 31.730469 28.847656 " fill-opacity="1" fill-rule="nonzero"/><path fill="#00ae51" d="M 31.730469 25.960938 L 31.730469 28.847656 L 28.847656 28.847656 L 28.847656 25.960938 L 31.730469 25.960938 " fill-opacity="1" fill-rule="nonzero"/><path fill="#8f0005" d="M 31.730469 14.421875 L 31.730469 17.308594 L 28.847656 17.308594 L 28.847656 14.421875 L 31.730469 14.421875 " fill-opacity="1" fill-rule="nonzero"/><path fill="#bd090d" d="M 31.730469 11.539062 L 31.730469 14.421875 L 28.847656 14.421875 L 28.847656 11.539062 L 31.730469 11.539062 " fill-opacity="1" fill-rule="nonzero"/><path fill="#bd090d" d="M 31.730469 8.652344 L 31.730469 11.539062 L 28.847656 11.539062 L 28.847656 8.652344 L 31.730469 8.652344 " fill-opacity="1" fill-rule="nonzero"/><path fill="#bd090d" d="M 31.730469 5.769531 L 31.730469 8.652344 L 28.847656 8.652344 L 28.847656 5.769531 L 31.730469 5.769531 " fill-opacity="1" fill-rule="nonzero"/><path fill="#8f0005" d="M 31.730469 2.886719 L 31.730469 5.769531 L 28.847656 5.769531 L 28.847656 2.886719 L 31.730469 2.886719 " fill-opacity="1" fill-rule="nonzero"/><g clip-path="url(#1607796bea)"><path fill="#027346" d="M 28.847656 34.617188 L 28.847656 37.5 L 25.960938 37.5 L 25.960938 34.617188 L 28.847656 34.617188 " fill-opacity="1" fill-rule="nonzero"/></g><path fill="#00ae51" d="M 28.847656 31.730469 L 28.847656 34.617188 L 25.960938 34.617188 L 25.960938 31.730469 L 28.847656 31.730469 " fill-opacity="1" fill-rule="nonzero"/><path fill="#027346" d="M 28.847656 28.847656 L 28.847656 31.730469 L 25.960938 31.730469 L 25.960938 28.847656 L 28.847656 28.847656 " fill-opacity="1" fill-rule="nonzero"/><path fill="#8f0005" d="M 28.847656 14.421875 L 28.847656 17.308594 L 25.960938 17.308594 L 25.960938 14.421875 L 28.847656 14.421875 " fill-opacity="1" fill-rule="nonzero"/><path fill="#bd090d" d="M 28.847656 11.539062 L 28.847656 14.421875 L 25.960938 14.421875 L 25.960938 11.539062 L 28.847656 11.539062 " fill-opacity="1" fill-rule="nonzero"/><path fill="#bd090d" d="M 28.847656 8.652344 L 28.847656 11.539062 L 25.960938 11.539062 L 25.960938 8.652344 L 28.847656 8.652344 " fill-opacity="1" fill-rule="nonzero"/><path fill="#ea1f25" d="M 28.847656 5.769531 L 28.847656 8.652344 L 25.960938 8.652344 L 25.960938 5.769531 L 28.847656 5.769531 " fill-opacity="1" fill-rule="nonzero"/><path fill="#bd090d" d="M 28.847656 2.886719 L 28.847656 5.769531 L 25.960938 5.769531 L 25.960938 2.886719 L 28.847656 2.886719 " fill-opacity="1" fill-rule="nonzero"/><path fill="#8f0005" d="M 28.847656 0 L 28.847656 2.886719 L 25.960938 2.886719 L 25.960938 0 L 28.847656 0 " fill-opacity="1" fill-rule="nonzero"/><g clip-path="url(#677817d448)"><path fill="#b59e84" d="M 25.960938 34.617188 L 25.960938 37.5 L 23.078125 37.5 L 23.078125 34.617188 L 25.960938 34.617188 " fill-opacity="1" fill-rule="nonzero"/></g><path fill="#b59e84" d="M 25.960938 31.730469 L 25.960938 34.617188 L 23.078125 34.617188 L 23.078125 31.730469 L 25.960938 31.730469 " fill-opacity="1" fill-rule="nonzero"/><path fill="#00ae51" d="M 25.960938 28.847656 L 25.960938 31.730469 L 23.078125 31.730469 L 23.078125 28.847656 L 25.960938 28.847656 " fill-opacity="1" fill-rule="nonzero"/><path fill="#027346" d="M 25.960938 25.960938 L 25.960938 28.847656 L 23.078125 28.847656 L 23.078125 25.960938 L 25.960938 25.960938 " fill-opacity="1" fill-rule="nonzero"/><path fill="#bd090d" d="M 25.960938 14.421875 L 25.960938 17.308594 L 23.078125 17.308594 L 23.078125 14.421875 L 25.960938 14.421875 " fill-opacity="1" fill-rule="nonzero"/><path fill="#bd090d" d="M 25.960938 11.539062 L 25.960938 14.421875 L 23.078125 14.421875 L 23.078125 11.539062 L 25.960938 11.539062 " fill-opacity="1" fill-rule="nonzero"/><path fill="#ea1f25" d="M 25.960938 8.652344 L 25.960938 11.539062 L 23.078125 11.539062 L 23.078125 8.652344 L 25.960938 8.652344 " fill-opacity="1" fill-rule="nonzero"/><path fill="#ea1f25" d="M 25.960938 5.769531 L 25.960938 8.652344 L 23.078125 8.652344 L 23.078125 5.769531 L 25.960938 5.769531 " fill-opacity="1" fill-rule="nonzero"/><path fill="#ea1f25" d="M 25.960938 2.886719 L 25.960938 5.769531 L 23.078125 5.769531 L 23.078125 2.886719 L 25.960938 2.886719 " fill-opacity="1" fill-rule="nonzero"/><path fill="#bd090d" d="M 25.960938 0 L 25.960938 2.886719 L 23.078125 2.886719 L 23.078125 0 L 25.960938 0 " fill-opacity="1" fill-rule="nonzero"/><g clip-path="url(#65abd0adab)"><path fill="#dec9b4" d="M 23.078125 34.617188 L 23.078125 37.5 L 20.191406 37.5 L 20.191406 34.617188 L 23.078125 34.617188 " fill-opacity="1" fill-rule="nonzero"/></g><path fill="#dec9b4" d="M 23.078125 31.730469 L 23.078125 34.617188 L 20.191406 34.617188 L 20.191406 31.730469 L 23.078125 31.730469 " fill-opacity="1" fill-rule="nonzero"/><path fill="#b59e84" d="M 23.078125 28.847656 L 23.078125 31.730469 L 20.191406 31.730469 L 20.191406 28.847656 L 23.078125 28.847656 " fill-opacity="1" fill-rule="nonzero"/><path fill="#b59e84" d="M 23.078125 25.960938 L 23.078125 28.847656 L 20.191406 28.847656 L 20.191406 25.960938 L 23.078125 25.960938 " fill-opacity="1" fill-rule="nonzero"/><path fill="#b59e84" d="M 23.078125 23.078125 L 23.078125 25.960938 L 20.191406 25.960938 L 20.191406 23.078125 L 23.078125 23.078125 " fill-opacity="1" fill-rule="nonzero"/><path fill="#b59e84" d="M 23.078125 20.191406 L 23.078125 23.078125 L 20.191406 23.078125 L 20.191406 20.191406 L 23.078125 20.191406 " fill-opacity="1" fill-rule="nonzero"/><path fill="#b59e84" d="M 23.078125 17.308594 L 23.078125 20.191406 L 20.191406 20.191406 L 20.191406 17.308594 L 23.078125 17.308594 " fill-opacity="1" fill-rule="nonzero"/><path fill="#bd090d" d="M 23.078125 14.421875 L 23.078125 17.308594 L 20.191406 17.308594 L 20.191406 14.421875 L 23.078125 14.421875 " fill-opacity="1" fill-rule="nonzero"/><path fill="#ffe3e4" d="M 23.078125 11.539062 L 23.078125 14.421875 L 20.191406 14.421875 L 20.191406 11.539062 L 23.078125 11.539062 " fill-opacity="1" fill-rule="nonzero"/><path fill="#ea1f25" d="M 23.078125 8.652344 L 23.078125 11.539062 L 20.191406 11.539062 L 20.191406 8.652344 L 23.078125 8.652344 " fill-opacity="1" fill-rule="nonzero"/><path fill="#ea1f25" d="M 23.078125 5.769531 L 23.078125 8.652344 L 20.191406 8.652344 L 20.191406 5.769531 L 23.078125 5.769531 " fill-opacity="1" fill-rule="nonzero"/><path fill="#ffe3e4" d="M 23.078125 2.886719 L 23.078125 5.769531 L 20.191406 5.769531 L 20.191406 2.886719 L 23.078125 2.886719 " fill-opacity="1" fill-rule="nonzero"/><path fill="#bd090d" d="M 23.078125 0 L 23.078125 2.886719 L 20.191406 2.886719 L 20.191406 0 L 23.078125 0 " fill-opacity="1" fill-rule="nonzero"/><g clip-path="url(#a3d1016ea1)"><path fill="#dec9b4" d="M 20.191406 34.617188 L 20.191406 37.5 L 17.308594 37.5 L 17.308594 34.617188 L 20.191406 34.617188 " fill-opacity="1" fill-rule="nonzero"/></g><path fill="#dec9b4" d="M 20.191406 31.730469 L 20.191406 34.617188 L 17.308594 34.617188 L 17.308594 31.730469 L 20.191406 31.730469 " fill-opacity="1" fill-rule="nonzero"/><path fill="#dec9b4" d="M 20.191406 28.847656 L 20.191406 31.730469 L 17.308594 31.730469 L 17.308594 28.847656 L 20.191406 28.847656 " fill-opacity="1" fill-rule="nonzero"/><path fill="#dec9b4" d="M 20.191406 25.960938 L 20.191406 28.847656 L 17.308594 28.847656 L 17.308594 25.960938 L 20.191406 25.960938 " fill-opacity="1" fill-rule="nonzero"/><path fill="#dec9b4" d="M 20.191406 23.078125 L 20.191406 25.960938 L 17.308594 25.960938 L 17.308594 23.078125 L 20.191406 23.078125 " fill-opacity="1" fill-rule="nonzero"/><path fill="#b59e84" d="M 20.191406 20.191406 L 20.191406 23.078125 L 17.308594 23.078125 L 17.308594 20.191406 L 20.191406 20.191406 " fill-opacity="1" fill-rule="nonzero"/><path fill="#b59e84" d="M 20.191406 17.308594 L 20.191406 20.191406 L 17.308594 20.191406 L 17.308594 17.308594 L 20.191406 17.308594 " fill-opacity="1" fill-rule="nonzero"/><path fill="#bd090d" d="M 20.191406 14.421875 L 20.191406 17.308594 L 17.308594 17.308594 L 17.308594 14.421875 L 20.191406 14.421875 " fill-opacity="1" fill-rule="nonzero"/><path fill="#ea1f25" d="M 20.191406 11.539062 L 20.191406 14.421875 L 17.308594 14.421875 L 17.308594 11.539062 L 20.191406 11.539062 " fill-opacity="1" fill-rule="nonzero"/><path fill="#ea1f25" d="M 20.191406 8.652344 L 20.191406 11.539062 L 17.308594 11.539062 L 17.308594 8.652344 L 20.191406 8.652344 " fill-opacity="1" fill-rule="nonzero"/><path fill="#ea1f25" d="M 20.191406 5.769531 L 20.191406 8.652344 L 17.308594 8.652344 L 17.308594 5.769531 L 20.191406 5.769531 " fill-opacity="1" fill-rule="nonzero"/><path fill="#ea1f25" d="M 20.191406 2.886719 L 20.191406 5.769531 L 17.308594 5.769531 L 17.308594 2.886719 L 20.191406 2.886719 " fill-opacity="1" fill-rule="nonzero"/><path fill="#ea1f25" d="M 20.191406 0 L 20.191406 2.886719 L 17.308594 2.886719 L 17.308594 0 L 20.191406 0 " fill-opacity="1" fill-rule="nonzero"/><g clip-path="url(#fc5b268805)"><path fill="#dec9b4" d="M 17.308594 34.617188 L 17.308594 37.5 L 14.421875 37.5 L 14.421875 34.617188 L 17.308594 34.617188 " fill-opacity="1" fill-rule="nonzero"/></g><path fill="#dec9b4" d="M 17.308594 31.730469 L 17.308594 34.617188 L 14.421875 34.617188 L 14.421875 31.730469 L 17.308594 31.730469 " fill-opacity="1" fill-rule="nonzero"/><path fill="#dec9b4" d="M 17.308594 28.847656 L 17.308594 31.730469 L 14.421875 31.730469 L 14.421875 28.847656 L 17.308594 28.847656 " fill-opacity="1" fill-rule="nonzero"/><path fill="#dec9b4" d="M 17.308594 25.960938 L 17.308594 28.847656 L 14.421875 28.847656 L 14.421875 25.960938 L 17.308594 25.960938 " fill-opacity="1" fill-rule="nonzero"/><path fill="#dec9b4" d="M 17.308594 23.078125 L 17.308594 25.960938 L 14.421875 25.960938 L 14.421875 23.078125 L 17.308594 23.078125 " fill-opacity="1" fill-rule="nonzero"/><path fill="#dec9b4" d="M 17.308594 20.191406 L 17.308594 23.078125 L 14.421875 23.078125 L 14.421875 20.191406 L 17.308594 20.191406 " fill-opacity="1" fill-rule="nonzero"/><path fill="#b59e84" d="M 17.308594 17.308594 L 17.308594 20.191406 L 14.421875 20.191406 L 14.421875 17.308594 L 17.308594 17.308594 " fill-opacity="1" fill-rule="nonzero"/><path fill="#ea1f25" d="M 17.308594 14.421875 L 17.308594 17.308594 L 14.421875 17.308594 L 14.421875 14.421875 L 17.308594 14.421875 " fill-opacity="1" fill-rule="nonzero"/><path fill="#ea1f25" d="M 17.308594 11.539062 L 17.308594 14.421875 L 14.421875 14.421875 L 14.421875 11.539062 L 17.308594 11.539062 " fill-opacity="1" fill-rule="nonzero"/><path fill="#ea1f25" d="M 17.308594 8.652344 L 17.308594 11.539062 L 14.421875 11.539062 L 14.421875 8.652344 L 17.308594 8.652344 " fill-opacity="1" fill-rule="nonzero"/><path fill="#ea1f25" d="M 17.308594 5.769531 L 17.308594 8.652344 L 14.421875 8.652344 L 14.421875 5.769531 L 17.308594 5.769531 " fill-opacity="1" fill-rule="nonzero"/><path fill="#ea1f25" d="M 17.308594 2.886719 L 17.308594 5.769531 L 14.421875 5.769531 L 14.421875 2.886719 L 17.308594 2.886719 " fill-opacity="1" fill-rule="nonzero"/><path fill="#ea1f25" d="M 17.308594 0 L 17.308594 2.886719 L 14.421875 2.886719 L 14.421875 0 L 17.308594 0 " fill-opacity="1" fill-rule="nonzero"/><g clip-path="url(#be2ffa3d1c)"><path fill="#dec9b4" d="M 14.421875 34.617188 L 14.421875 37.5 L 11.539062 37.5 L 11.539062 34.617188 L 14.421875 34.617188 " fill-opacity="1" fill-rule="nonzero"/></g><path fill="#027346" d="M 14.421875 31.730469 L 14.421875 34.617188 L 11.539062 34.617188 L 11.539062 31.730469 L 14.421875 31.730469 " fill-opacity="1" fill-rule="nonzero"/><path fill="#ea1f25" d="M 14.421875 14.421875 L 14.421875 17.308594 L 11.539062 17.308594 L 11.539062 14.421875 L 14.421875 14.421875 " fill-opacity="1" fill-rule="nonzero"/><path fill="#ea1f25" d="M 14.421875 11.539062 L 14.421875 14.421875 L 11.539062 14.421875 L 11.539062 11.539062 L 14.421875 11.539062 " fill-opacity="1" fill-rule="nonzero"/><path fill="#ffe3e4" d="M 14.421875 8.652344 L 14.421875 11.539062 L 11.539062 11.539062 L 11.539062 8.652344 L 14.421875 8.652344 " fill-opacity="1" fill-rule="nonzero"/><path fill="#ea1f25" d="M 14.421875 5.769531 L 14.421875 8.652344 L 11.539062 8.652344 L 11.539062 5.769531 L 14.421875 5.769531 " fill-opacity="1" fill-rule="nonzero"/><path fill="#ea1f25" d="M 14.421875 2.886719 L 14.421875 5.769531 L 11.539062 5.769531 L 11.539062 2.886719 L 14.421875 2.886719 " fill-opacity="1" fill-rule="nonzero"/><path fill="#ea1f25" d="M 14.421875 0 L 14.421875 2.886719 L 11.539062 2.886719 L 11.539062 0 L 14.421875 0 " fill-opacity="1" fill-rule="nonzero"/><g clip-path="url(#46fbcba50d)"><path fill="#027346" d="M 11.539062 34.617188 L 11.539062 37.5 L 8.652344 37.5 L 8.652344 34.617188 L 11.539062 34.617188 " fill-opacity="1" fill-rule="nonzero"/></g><path fill="#00ae51" d="M 11.539062 31.730469 L 11.539062 34.617188 L 8.652344 34.617188 L 8.652344 31.730469 L 11.539062 31.730469 " fill-opacity="1" fill-rule="nonzero"/><path fill="#027346" d="M 11.539062 28.847656 L 11.539062 31.730469 L 8.652344 31.730469 L 8.652344 28.847656 L 11.539062 28.847656 " fill-opacity="1" fill-rule="nonzero"/><path fill="#027346" d="M 11.539062 25.960938 L 11.539062 28.847656 L 8.652344 28.847656 L 8.652344 25.960938 L 11.539062 25.960938 " fill-opacity="1" fill-rule="nonzero"/><path fill="#ea1f25" d="M 11.539062 14.421875 L 11.539062 17.308594 L 8.652344 17.308594 L 8.652344 14.421875 L 11.539062 14.421875 " fill-opacity="1" fill-rule="nonzero"/><path fill="#ea1f25" d="M 11.539062 11.539062 L 11.539062 14.421875 L 8.652344 14.421875 L 8.652344 11.539062 L 11.539062 11.539062 " fill-opacity="1" fill-rule="nonzero"/><path fill="#ea1f25" d="M 11.539062 8.652344 L 11.539062 11.539062 L 8.652344 11.539062 L 8.652344 8.652344 L 11.539062 8.652344 " fill-opacity="1" fill-rule="nonzero"/><path fill="#ea1f25" d="M 11.539062 5.769531 L 11.539062 8.652344 L 8.652344 8.652344 L 8.652344 5.769531 L 11.539062 5.769531 " fill-opacity="1" fill-rule="nonzero"/><path fill="#ffe3e4" d="M 11.539062 2.886719 L 11.539062 5.769531 L 8.652344 5.769531 L 8.652344 2.886719 L 11.539062 2.886719 " fill-opacity="1" fill-rule="nonzero"/><path fill="#bd090d" d="M 11.539062 0 L 11.539062 2.886719 L 8.652344 2.886719 L 8.652344 0 L 11.539062 0 " fill-opacity="1" fill-rule="nonzero"/><path fill="#00ae51" d="M 8.652344 28.847656 L 8.652344 31.730469 L 5.769531 31.730469 L 5.769531 28.847656 L 8.652344 28.847656 " fill-opacity="1" fill-rule="nonzero"/><path fill="#00ae51" d="M 8.652344 23.078125 L 8.652344 25.960938 L 5.769531 25.960938 L 5.769531 23.078125 L 8.652344 23.078125 " fill-opacity="1" fill-rule="nonzero"/><path fill="#ea1f25" d="M 8.652344 14.421875 L 8.652344 17.308594 L 5.769531 17.308594 L 5.769531 14.421875 L 8.652344 14.421875 " fill-opacity="1" fill-rule="nonzero"/><path fill="#ea1f25" d="M 8.652344 11.539062 L 8.652344 14.421875 L 5.769531 14.421875 L 5.769531 11.539062 L 8.652344 11.539062 " fill-opacity="1" fill-rule="nonzero"/><path fill="#ea1f25" d="M 8.652344 8.652344 L 8.652344 11.539062 L 5.769531 11.539062 L 5.769531 8.652344 L 8.652344 8.652344 " fill-opacity="1" fill-rule="nonzero"/><path fill="#ea1f25" d="M 8.652344 5.769531 L 8.652344 8.652344 L 5.769531 8.652344 L 5.769531 5.769531 L 8.652344 5.769531 " fill-opacity="1" fill-rule="nonzero"/><path fill="#bd090d" d="M 8.652344 2.886719 L 8.652344 5.769531 L 5.769531 5.769531 L 5.769531 2.886719 L 8.652344 2.886719 " fill-opacity="1" fill-rule="nonzero"/><path fill="#bd090d" d="M 5.769531 14.421875 L 5.769531 17.308594 L 2.882812 17.308594 L 2.882812 14.421875 L 5.769531 14.421875 " fill-opacity="1" fill-rule="nonzero"/><path fill="#ffe3e4" d="M 5.769531 11.539062 L 5.769531 14.421875 L 2.882812 14.421875 L 2.882812 11.539062 L 5.769531 11.539062 " fill-opacity="1" fill-rule="nonzero"/><path fill="#ea1f25" d="M 5.769531 8.652344 L 5.769531 11.539062 L 2.882812 11.539062 L 2.882812 8.652344 L 5.769531 8.652344 " fill-opacity="1" fill-rule="nonzero"/><path fill="#bd090d" d="M 5.769531 5.769531 L 5.769531 8.652344 L 2.882812 8.652344 L 2.882812 5.769531 L 5.769531 5.769531 " fill-opacity="1" fill-rule="nonzero"/><path fill="#bd090d" d="M 2.882812 14.421875 L 2.882812 17.308594 L 0 17.308594 L 0 14.421875 L 2.882812 14.421875 " fill-opacity="1" fill-rule="nonzero"/><path fill="#bd090d" d="M 2.882812 11.539062 L 2.882812 14.421875 L 0 14.421875 L 0 11.539062 L 2.882812 11.539062 " fill-opacity="1" fill-rule="nonzero"/><path fill="#bd090d" d="M 2.882812 8.652344 L 2.882812 11.539062 L 0 11.539062 L 0 8.652344 L 2.882812 8.652344 " fill-opacity="1" fill-rule="nonzero"/></svg>